<svg width="33" height="32" viewBox="0 0 33 32" fill="none" xmlns="http://www.w3.org/2000/svg">
<path d="M26.4998 10.5001H19.4998V8.50008H26.4998V10.5001ZM28.2257 20.5C27.7837 21.7969 26.1968 23.4999 23.1248 23.4999C20.0508 23.4999 17.5609 21.7709 17.5609 17.825C17.5609 13.915 19.8858 11.905 23.0268 11.905C26.1088 11.905 27.9907 13.687 28.4017 16.331C28.4797 16.837 28.5107 17.519 28.4967 18.471H20.4698C20.5998 21.6819 23.9528 21.7829 25.0578 20.5H28.2257ZM20.5398 16.5H25.5048C25.3998 14.953 24.3688 14.281 23.0278 14.281C21.5618 14.281 20.7508 15.049 20.5398 16.5ZM10.9659 23.4879H4.5V8.52108H11.4529C16.9289 8.60208 17.0329 13.965 14.1729 15.427C17.6339 16.687 17.7499 23.4879 10.9659 23.4879ZM7.49997 14.5H11.0839C13.5919 14.5 13.9899 11.5001 10.7719 11.5001H7.49997V14.5ZM10.8909 17.5H7.49997V20.516H10.8409C13.8959 20.516 13.7089 17.5 10.8909 17.5Z" fill="#F5F5F5"/>
</svg>
