<svg width="30" height="30" viewBox="0 0 30 30" fill="none" xmlns="http://www.w3.org/2000/svg">
<path fill-rule="evenodd" clip-rule="evenodd" d="M29.4313 3.31165C29.6115 3.13173 29.7544 2.9181 29.852 2.68294C29.9495 2.44778 29.9998 2.19571 30 1.94111C30.0002 1.68651 29.9502 1.43438 29.8529 1.1991C29.7556 0.963824 29.6129 0.750012 29.433 0.569874C29.2531 0.389736 29.0395 0.246799 28.8043 0.149225C28.5691 0.0516498 28.3171 0.00134815 28.0625 0.00119167C27.8079 0.00103519 27.5557 0.0510269 27.3205 0.148312C27.0852 0.245598 26.8714 0.388272 26.6912 0.568189L14.9995 12.2599L3.31116 0.568189C2.94736 0.204383 2.45393 -3.83331e-09 1.93943 0C1.42493 3.83331e-09 0.931506 0.204383 0.5677 0.568189C0.203895 0.931994 -0.000488277 1.42542 -0.000488281 1.93992C-0.000488285 2.45442 0.203895 2.94784 0.5677 3.31165L12.2594 15L0.5677 26.6884C0.387562 26.8685 0.244669 27.0823 0.147179 27.3177C0.0496889 27.5531 -0.000488281 27.8053 -0.000488281 28.0601C-0.000488281 28.3148 0.0496889 28.5671 0.147179 28.8025C0.244669 29.0378 0.387562 29.2517 0.5677 29.4318C0.931506 29.7956 1.42493 30 1.93943 30C2.19418 30 2.44644 29.9498 2.68181 29.8523C2.91717 29.7548 3.13102 29.6119 3.31116 29.4318L14.9995 17.7401L26.6912 29.4318C27.055 29.7952 27.5483 29.9991 28.0625 29.9988C28.5767 29.9985 29.0696 29.7939 29.433 29.4301C29.7964 29.0663 30.0003 28.5731 30 28.0589C29.9997 27.5447 29.7951 27.0517 29.4313 26.6884L17.7396 15L29.4313 3.31165Z" fill="#F5F5F5"/>
</svg>
