<svg width="33" height="32" viewBox="0 0 33 32" fill="none" xmlns="http://www.w3.org/2000/svg">
<path d="M16.5 4C9.872 4 4.5 9.373 4.5 16C4.5 22.627 9.872 28 16.5 28C23.128 28 28.5 22.627 28.5 16C28.5 9.373 23.128 4 16.5 4ZM26.385 15.441C23.81 15.019 21.442 14.996 19.282 15.368C19.038 14.805 18.785 14.243 18.515 13.688C20.825 12.688 22.68 11.33 24.063 9.606C25.413 11.2 26.26 13.225 26.385 15.441ZM22.543 8.159C21.338 9.713 19.675 10.942 17.557 11.839C16.541 9.978 15.379 8.163 14.069 6.401C14.848 6.204 15.66 6.087 16.5 6.087C18.775 6.087 20.868 6.866 22.543 8.159ZM12.027 7.166C13.358 8.908 14.538 10.704 15.564 12.547C13.134 13.262 10.233 13.629 6.88 13.652C7.572 10.817 9.481 8.459 12.027 7.166ZM6.587 16L6.6 15.744C10.449 15.739 13.769 15.296 16.55 14.422C16.783 14.897 17.006 15.374 17.22 15.854C13.84 16.911 11.055 19.076 8.883 22.334C7.451 20.615 6.587 18.407 6.587 16ZM10.416 23.81C12.385 20.722 14.898 18.712 18.014 17.783C18.942 20.203 19.623 22.693 20.057 25.243C16.708 26.534 13.104 25.909 10.416 23.81ZM22.002 24.24C21.564 21.887 20.922 19.587 20.082 17.343C21.958 17.078 24.022 17.147 26.281 17.539C25.844 20.325 24.253 22.731 22.002 24.24Z" fill="#F5F5F5"/>
</svg>
