<svg width="33" height="32" viewBox="0 0 33 32" fill="none" xmlns="http://www.w3.org/2000/svg">
<path d="M16.5 4.29588C9.874 4.29588 4.5 9.66888 4.5 16.2959C4.5 21.5979 7.938 26.0959 12.707 27.6829C13.306 27.7939 13.5 27.4219 13.5 27.1059V24.8719C10.162 25.5979 9.467 23.4559 9.467 23.4559C8.921 22.0689 8.134 21.6999 8.134 21.6999C7.045 20.9549 8.217 20.9709 8.217 20.9709C9.422 21.0549 10.056 22.2079 10.056 22.2079C11.126 24.0419 12.863 23.5119 13.548 23.2049C13.655 22.4299 13.966 21.8999 14.31 21.6009C11.645 21.2959 8.843 20.2669 8.843 15.6699C8.843 14.3589 9.312 13.2889 10.079 12.4489C9.955 12.1459 9.544 10.9249 10.196 9.27288C10.196 9.27288 11.204 8.95088 13.497 10.5029C14.454 10.2369 15.48 10.1039 16.5 10.0989C17.52 10.1039 18.547 10.2369 19.506 10.5029C21.797 8.95088 22.803 9.27288 22.803 9.27288C23.456 10.9259 23.045 12.1469 22.921 12.4489C23.691 13.2889 24.156 14.3599 24.156 15.6699C24.156 20.2789 21.349 21.2939 18.677 21.5909C19.107 21.9629 19.5 22.6929 19.5 23.8129V27.1059C19.5 27.4249 19.692 27.7999 20.301 27.6819C25.066 26.0929 28.5 21.5959 28.5 16.2959C28.5 9.66888 23.127 4.29588 16.5 4.29588Z" fill="#F5F5F5"/>
</svg>
