<svg width="33" height="32" viewBox="0 0 33 32" fill="none" xmlns="http://www.w3.org/2000/svg">
<path d="M16.5 6.163C19.704 6.163 20.084 6.175 21.35 6.233C24.602 6.381 26.121 7.924 26.269 11.152C26.327 12.417 26.338 12.797 26.338 16.001C26.338 19.206 26.326 19.585 26.269 20.85C26.12 24.075 24.605 25.621 21.35 25.769C20.084 25.827 19.706 25.839 16.5 25.839C13.296 25.839 12.916 25.827 11.651 25.769C8.391 25.62 6.88 24.07 6.732 20.849C6.674 19.584 6.662 19.205 6.662 16C6.662 12.796 6.675 12.417 6.732 11.151C6.881 7.924 8.396 6.38 11.651 6.232C12.917 6.175 13.296 6.163 16.5 6.163ZM16.5 4C13.241 4 12.833 4.014 11.553 4.072C7.195 4.272 4.773 6.69 4.573 11.052C4.514 12.333 4.5 12.741 4.5 16C4.5 19.259 4.514 19.668 4.572 20.948C4.772 25.306 7.19 27.728 11.552 27.928C12.833 27.986 13.241 28 16.5 28C19.759 28 20.168 27.986 21.448 27.928C25.802 27.728 28.23 25.31 28.427 20.948C28.486 19.668 28.5 19.259 28.5 16C28.5 12.741 28.486 12.333 28.428 11.053C28.232 6.699 25.811 4.273 21.449 4.073C20.168 4.014 19.759 4 16.5 4ZM16.5 9.838C13.097 9.838 10.338 12.597 10.338 16C10.338 19.403 13.097 22.163 16.5 22.163C19.903 22.163 22.662 19.404 22.662 16C22.662 12.597 19.903 9.838 16.5 9.838ZM16.5 20C14.291 20 12.5 18.21 12.5 16C12.5 13.791 14.291 12 16.5 12C18.709 12 20.5 13.791 20.5 16C20.5 18.21 18.709 20 16.5 20ZM22.906 8.155C22.11 8.155 21.465 8.8 21.465 9.595C21.465 10.39 22.11 11.035 22.906 11.035C23.701 11.035 24.345 10.39 24.345 9.595C24.345 8.8 23.701 8.155 22.906 8.155Z" fill="#F5F5F5"/>
</svg>
