<svg width="33" height="32" viewBox="0 0 33 32" fill="none" xmlns="http://www.w3.org/2000/svg">
<path d="M26.7253 4.00017H6.27465C6.04476 3.99699 5.8165 4.03886 5.6029 4.12339C5.38929 4.20791 5.19453 4.33343 5.02974 4.49278C4.86494 4.65212 4.73334 4.84218 4.64244 5.05208C4.55155 5.26199 4.50315 5.48764 4.5 5.71614V26.2839C4.50315 26.5124 4.55155 26.738 4.64244 26.9479C4.73334 27.1578 4.86494 27.3479 5.02974 27.5072C5.19453 27.6666 5.38929 27.7921 5.6029 27.8766C5.8165 27.9611 6.04476 28.003 6.27465 27.9998H26.7253C26.9552 28.003 27.1835 27.9611 27.3971 27.8766C27.6107 27.7921 27.8055 27.6666 27.9703 27.5072C28.1351 27.3479 28.2667 27.1578 28.3576 26.9479C28.4484 26.738 28.4969 26.5124 28.5 26.2839V5.71614C28.4969 5.48764 28.4484 5.26199 28.3576 5.05208C28.2667 4.84218 28.1351 4.65212 27.9703 4.49278C27.8055 4.33343 27.6107 4.20791 27.3971 4.12339C27.1835 4.03886 26.9552 3.99699 26.7253 4.00017ZM11.7797 24.0879H8.15795V13.288H11.7797V24.0879ZM9.96881 11.7761C9.46933 11.7761 8.99031 11.5788 8.63712 11.2278C8.28393 10.8767 8.08551 10.4006 8.08551 9.90409C8.08551 9.40761 8.28393 8.93146 8.63712 8.5804C8.99031 8.22934 9.46933 8.03211 9.96881 8.03211C10.234 8.00221 10.5026 8.02834 10.757 8.10877C11.0114 8.1892 11.2458 8.32214 11.4449 8.49886C11.644 8.67558 11.8033 8.89211 11.9123 9.13427C12.0214 9.37644 12.0778 9.63876 12.0778 9.90409C12.0778 10.1694 12.0214 10.4317 11.9123 10.6739C11.8033 10.9161 11.644 11.1326 11.4449 11.3093C11.2458 11.486 11.0114 11.619 10.757 11.6994C10.5026 11.7798 10.234 11.806 9.96881 11.7761ZM24.8421 24.0879H21.2203V18.292C21.2203 16.84 20.7012 15.892 19.3853 15.892C18.9781 15.895 18.5815 16.0219 18.2491 16.2558C17.9167 16.4897 17.6644 16.8192 17.5262 17.2C17.4317 17.482 17.3907 17.7791 17.4054 18.076V24.0759H13.7837C13.7837 24.0759 13.7837 14.26 13.7837 13.276H17.4054V14.8C17.7344 14.2326 18.213 13.7651 18.7895 13.4479C19.366 13.1307 20.0186 12.9759 20.6771 13C23.0915 13 24.8421 14.548 24.8421 17.872V24.0879Z" fill="#F5F5F5"/>
</svg>
