<svg width="33" height="32" viewBox="0 0 33 32" fill="none" xmlns="http://www.w3.org/2000/svg">
<path d="M28.5 8.57198C27.598 8.9633 26.6441 9.22198 25.668 9.33998C26.6978 8.72477 27.4695 7.75692 27.84 6.61598C26.8723 7.19206 25.8129 7.59794 24.708 7.81598C23.9695 7.01507 22.986 6.48194 21.9118 6.3002C20.8376 6.11847 19.7335 6.29841 18.7725 6.81181C17.8116 7.32521 17.0483 8.14302 16.6023 9.13699C16.1563 10.131 16.0528 11.2449 16.308 12.304C14.3513 12.205 12.4373 11.6955 10.6904 10.8086C8.94344 9.92171 7.40262 8.67721 6.168 7.15598C5.73497 7.91218 5.50742 8.76857 5.508 9.63998C5.50646 10.4492 5.70506 11.2463 6.08611 11.9603C6.46715 12.6742 7.01882 13.2828 7.692 13.732C6.90957 13.7107 6.14386 13.5007 5.46 13.12V13.18C5.46586 14.3139 5.86319 15.4109 6.58478 16.2855C7.30636 17.1602 8.30791 17.7588 9.42 17.98C8.99191 18.1103 8.54745 18.179 8.1 18.184C7.79027 18.1804 7.48131 18.1523 7.176 18.1C7.49269 19.0754 8.10555 19.9278 8.92929 20.5386C9.75303 21.1494 10.7467 21.4882 11.772 21.508C10.0406 22.8703 7.90306 23.6138 5.7 23.62C5.29888 23.6213 4.89808 23.5973 4.5 23.548C6.74931 25.0003 9.37058 25.7712 12.048 25.768C13.8956 25.7872 15.7286 25.438 17.4397 24.7409C19.1509 24.0438 20.706 23.0126 22.0142 21.7078C23.3225 20.4029 24.3576 18.8505 25.0591 17.1411C25.7606 15.4317 26.1144 13.5997 26.1 11.752C26.1 11.548 26.1 11.332 26.1 11.116C27.0416 10.4138 27.8538 9.55289 28.5 8.57198Z" fill="#F5F5F5"/>
</svg>
