<svg width="41" height="41" viewBox="0 0 41 41" fill="none" xmlns="http://www.w3.org/2000/svg">
<g clip-path="url(#clip0_547_1712)">
<path d="M18.6101 23.3543L25.5332 15.1036L24.1074 13.9073L17.1843 22.158L18.6101 23.3543Z" fill="#0D0D0D"/>
<path d="M25.5319 15.1036L32.4551 6.85291L31.0293 5.65654L24.1062 13.9072L25.5319 15.1036Z" fill="#0019FF"/>
<path d="M25.6234 15.2027L32.6895 7.0741L31.2848 5.85303L24.2187 13.9816L25.6234 15.2027Z" fill="#0015FF"/>
<path d="M25.713 15.3032L32.9199 7.29919L31.5368 6.0538L24.3299 14.0578L25.713 15.3032Z" fill="#0011FF"/>
<path d="M25.801 15.4055L33.1465 7.52844L31.7853 6.2591L24.4398 14.1362L25.801 15.4055Z" fill="#000CFF"/>
<path d="M25.8873 15.5091L33.3691 7.76147L32.0303 6.46857L24.5485 14.2162L25.8873 15.5091Z" fill="#0008FF"/>
<path d="M25.972 15.6144L33.5879 7.99854L32.2718 6.68246L24.6559 14.2984L25.972 15.6144Z" fill="#0004FF"/>
<path d="M26.0551 15.7211L33.8027 8.23926L32.5098 6.90041L24.7622 14.3822L26.0551 15.7211Z" fill="#0000FF"/>
<path d="M26.1366 15.8291L34.0137 8.48364L32.7443 7.12244L24.8673 14.4679L26.1366 15.8291Z" fill="#0500FF"/>
<path d="M26.2147 15.9387L34.2188 8.73181L32.9734 7.34866L24.9693 14.5555L26.2147 15.9387Z" fill="#0900FF"/>
<path d="M26.2913 16.0494L34.4199 8.98328L33.1989 7.5786L25.0703 14.6447L26.2913 16.0494Z" fill="#0D00FF"/>
<path d="M26.3665 16.1616L34.6172 9.2384L33.4208 7.81263L25.1701 14.7358L26.3665 16.1616Z" fill="#1100FF"/>
<path d="M26.4403 16.275L34.8105 9.49695L33.6392 8.05052L25.269 14.8286L26.4403 16.275Z" fill="#1600FF"/>
<path d="M26.5108 16.3898L34.998 9.75879L33.8522 8.29213L25.3649 14.9231L26.5108 16.3898Z" fill="#1A00FF"/>
<path d="M26.5799 16.5057L35.1816 10.0238L34.0615 8.53737L25.4598 15.0192L26.5799 16.5057Z" fill="#1E00FF"/>
<path d="M26.6478 16.6229L35.3613 10.2921L34.2673 8.78636L25.5538 15.1171L26.6478 16.6229Z" fill="#2200FF"/>
<path d="M26.7125 16.7411L35.5352 10.5634L34.4676 9.03874L25.6449 15.2164L26.7125 16.7411Z" fill="#2700FF"/>
<path d="M26.7759 16.8606L35.7051 10.8378L34.6643 9.29475L25.7351 15.3175L26.7759 16.8606Z" fill="#2B00FF"/>
<path d="M26.8362 16.9809L35.8691 11.1149L34.8555 9.55393L25.8225 15.42L26.8362 16.9809Z" fill="#2F00FF"/>
<path d="M26.8954 17.1025L36.0293 11.395L35.043 9.81662L25.9091 15.5241L26.8954 17.1025Z" fill="#3300FF"/>
<path d="M26.9515 17.2251L36.1836 11.6779L35.225 10.0825L25.9929 15.6297L26.9515 17.2251Z" fill="#3800FF"/>
<path d="M27.0045 17.3485L36.332 11.9633L35.4014 10.3514L26.0739 15.7367L27.0045 17.3485Z" fill="#3C00FF"/>
<path d="M27.0584 17.473L36.4785 12.2513L35.5762 10.6235L26.1561 15.8451L27.0584 17.473Z" fill="#4000FF"/>
<path d="M27.1074 17.5982L36.6172 12.5417L35.7434 10.8984L26.2336 15.9548L27.1074 17.5982Z" fill="#4400FF"/>
<path d="M27.1554 17.7244L36.752 12.8347L35.907 11.1764L26.3104 16.0661L27.1554 17.7244Z" fill="#4800FF"/>
<path d="M27.2023 17.8514L36.8828 13.1299L36.0669 11.457L26.3864 16.1785L27.2023 17.8514Z" fill="#4D00FF"/>
<path d="M27.2445 17.9792L37.0059 13.4274L36.2193 11.7405L26.4579 16.2924L27.2445 17.9792Z" fill="#5100FF"/>
<path d="M27.2857 18.1076L37.125 13.7268L36.368 12.0265L26.5286 16.4073L27.2857 18.1076Z" fill="#5500FF"/>
<path d="M27.3259 18.2368L37.2402 14.0284L36.513 12.3152L26.5987 16.5236L27.3259 18.2368Z" fill="#5900FF"/>
<path d="M27.3614 18.3667L37.3477 14.332L36.6504 12.6063L26.6642 16.641L27.3614 18.3667Z" fill="#5E00FF"/>
<path d="M27.396 18.4973L37.4512 14.6375L36.7842 12.8999L26.729 16.7597L27.396 18.4973Z" fill="#6200FF"/>
<path d="M27.4298 18.6283L37.5508 14.9446L36.9142 13.1956L26.7932 16.8793L27.4298 18.6283Z" fill="#6600FF"/>
<path d="M27.4589 18.7598L37.6426 15.2533L37.0366 13.4935L26.8529 17L27.4589 18.7598Z" fill="#6A00FF"/>
<path d="M27.4852 18.892L37.7285 15.5637L37.1534 13.7936L26.91 17.1219L27.4852 18.892Z" fill="#6F00FF"/>
<path d="M27.5126 19.0246L37.8125 15.8756L37.2683 14.0957L26.9684 17.2447L27.5126 19.0246Z" fill="#7300FF"/>
<path d="M27.5334 19.1576L37.8867 16.1888L37.3737 14.3997L27.0204 17.3685L27.5334 19.1576Z" fill="#7700FF"/>
<path d="M27.5555 19.2909L37.959 16.5033L37.4773 14.7055L27.0738 17.4931L27.5555 19.2909Z" fill="#7B00FF"/>
<path d="M27.5729 19.4247L38.0234 16.8191L37.5732 15.0132L27.1226 17.6188L27.5729 19.4247Z" fill="#8000FF"/>
<path d="M27.5895 19.5587L38.084 17.1359L37.6653 15.3224L27.1708 17.7452L27.5895 19.5587Z" fill="#8400FF"/>
<path d="M27.6035 19.6929L38.1387 17.4536L37.7517 15.6331L27.2166 17.8724L27.6035 19.6929Z" fill="#8800FF"/>
<path d="M27.6149 19.8274L38.1875 17.7723L37.8324 15.9453L27.2597 18.0004L27.6149 19.8274Z" fill="#8C00FF"/>
<path d="M27.6216 19.9621L38.2285 18.0918L37.9053 16.2589L27.2984 18.1291L27.6216 19.9621Z" fill="#9100FF"/>
<path d="M27.6297 20.0969L38.2676 18.412L37.9764 16.5737L27.3385 18.2586L27.6297 20.0969Z" fill="#9500FF"/>
<path d="M27.6331 20.2318L38.2988 18.7328L38.0398 16.8897L27.3741 18.3887L27.6331 20.2318Z" fill="#9900FF"/>
<path d="M27.6359 20.3667L38.3262 19.0541L38.0993 17.2067L27.4091 18.5193L27.6359 20.3667Z" fill="#9D00FF"/>
<path d="M27.6361 20.5017L38.3477 19.3759L38.1531 17.5248L27.4416 18.6507L27.6361 20.5017Z" fill="#A100FF"/>
<path d="M27.6338 20.6366L38.3633 19.6979L38.2011 17.8437L27.4715 18.7825L27.6338 20.6366Z" fill="#A600FF"/>
<path d="M27.6268 20.7715L38.3711 20.0201L38.2413 18.1635L27.497 18.9148L27.6268 20.7715Z" fill="#AA00FF"/>
<path d="M27.6193 20.9062L38.375 20.3425L38.2776 18.4839L27.5218 19.0476L27.6193 20.9062Z" fill="#AE00FF"/>
<path d="M27.6091 21.0408L38.373 20.6649L38.3081 18.8048L27.5441 19.1807L27.6091 21.0408Z" fill="#B200FF"/>
<path d="M27.5983 21.1752L38.3672 20.9872L38.3347 19.1263L27.5658 19.3142L27.5983 21.1752Z" fill="#B700FF"/>
<path d="M27.5811 21.3093H38.3516V19.4481H27.5811V21.3093Z" fill="#BB00FF"/>
<path d="M27.5651 21.4433L38.334 21.6312L38.3665 19.7703L27.5976 19.5823L27.5651 21.4433Z" fill="#BF00FF"/>
<path d="M27.5466 21.5769L38.3105 21.9528L38.3755 20.0927L27.6116 19.7168L27.5466 21.5769Z" fill="#C300FF"/>
<path d="M27.5255 21.71L38.2812 22.2737L38.3787 20.415L27.6229 19.8513L27.5255 21.71Z" fill="#C800FF"/>
<path d="M27.5018 21.8429L38.2461 22.5942L38.3759 20.7376L27.6317 19.9862L27.5018 21.8429Z" fill="#CC00FF"/>
<path d="M27.4756 21.9752L38.2051 22.9139L38.3673 21.0598L27.6378 20.1211L27.4756 21.9752Z" fill="#D000FF"/>
<path d="M27.4467 22.1071L38.1582 23.2329L38.3528 21.3819L27.6412 20.2561L27.4467 22.1071Z" fill="#D400FF"/>
<path d="M27.4152 22.2386L38.1055 23.5511L38.3323 21.7038L27.6421 20.3912L27.4152 22.2386Z" fill="#D900FF"/>
<path d="M27.3812 22.3693L38.0469 23.8683L38.3059 22.0252L27.6402 20.5262L27.3812 22.3693Z" fill="#DD00FF"/>
<path d="M27.3465 22.4996L37.9844 24.1844L38.2755 22.3462L27.6376 20.6613L27.3465 22.4996Z" fill="#E100FF"/>
<path d="M27.3091 22.6292L37.916 24.4995L38.2392 22.6666L27.6323 20.7963L27.3091 22.6292Z" fill="#E500FF"/>
<path d="M27.2692 22.7581L37.8418 24.8132L38.1969 22.9862L27.6243 20.9311L27.2692 22.7581Z" fill="#EA00FF"/>
<path d="M27.2266 22.8863L37.7617 25.1256L38.1487 23.3051L27.6135 21.0658L27.2266 22.8863Z" fill="#EE00FF"/>
<path d="M27.1813 23.0137L37.6758 25.4365L38.0945 23.623L27.6 21.2002L27.1813 23.0137Z" fill="#F200FF"/>
<path d="M27.1354 23.1403L37.5859 25.746L38.0362 23.94L27.5856 21.3344L27.1354 23.1403Z" fill="#F600FF"/>
<path d="M27.0867 23.2662L37.4902 26.0538L37.972 24.256L27.5684 21.4684L27.0867 23.2662Z" fill="#FA00FF"/>
<path d="M27.0354 23.3911L37.3887 26.3599L37.9017 24.5708L27.5484 21.602L27.0354 23.3911Z" fill="#FF00FF"/>
<path d="M26.9833 23.5152L37.2832 26.6642L37.8274 24.8843L27.5275 21.7353L26.9833 23.5152Z" fill="#FF00FB"/>
<path d="M26.9285 23.6383L37.1719 26.9666L37.747 25.1964L27.5037 21.8682L26.9285 23.6383Z" fill="#FF00F7"/>
<path d="M26.871 23.7603L37.0547 27.2668L37.6606 25.507L27.4769 22.0005L26.871 23.7603Z" fill="#FF00F3"/>
<path d="M26.8107 23.8815L36.9316 27.5652L37.5682 25.8162L27.4472 22.1325L26.8107 23.8815Z" fill="#FF00EE"/>
<path d="M26.7496 24.0015L36.8047 27.8613L37.4717 26.1237L27.4166 22.2639L26.7496 24.0015Z" fill="#FF00EA"/>
<path d="M26.6856 24.1204L36.6719 28.1552L37.3691 26.4295L27.3829 22.3948L26.6856 24.1204Z" fill="#FF00E6"/>
<path d="M26.6189 24.2382L36.5332 28.4465L37.2604 26.7333L27.3461 22.5249L26.6189 24.2382Z" fill="#FF00E2"/>
<path d="M26.5513 24.3548L36.3906 28.7356L37.1476 27.0353L27.3083 22.6545L26.5513 24.3548Z" fill="#FF00DD"/>
<path d="M26.4808 24.4702L36.2422 29.022L37.0288 27.3351L27.2674 22.7833L26.4808 24.4702Z" fill="#FF00D9"/>
<path d="M26.4094 24.5844L36.0898 29.3059L36.9057 27.6331L27.2253 22.9116L26.4094 24.5844Z" fill="#FF00D5"/>
<path d="M26.335 24.6973L35.9316 29.587L36.7766 27.9287L27.18 23.039L26.335 24.6973Z" fill="#FF00D1"/>
<path d="M26.2597 24.8089L35.7695 29.8654L36.6433 28.222L27.1335 23.1656L26.2597 24.8089Z" fill="#FF00CC"/>
<path d="M26.1815 24.9192L35.6016 30.1409L36.5039 28.513L27.0838 23.2914L26.1815 24.9192Z" fill="#FF00C8"/>
<path d="M26.1022 25.0281L35.4297 30.4133L36.3603 28.8015L27.0328 23.4162L26.1022 25.0281Z" fill="#FF00C4"/>
<path d="M26.0198 25.1356L35.252 30.6829L36.2105 29.0875L26.9784 23.5403L26.0198 25.1356Z" fill="#FF00C0"/>
<path d="M25.9364 25.2416L35.0703 30.9491L36.0566 29.3707L26.9227 23.6632L25.9364 25.2416Z" fill="#FF00BB"/>
<path d="M25.8519 25.3462L34.8848 31.2123L35.8985 29.6513L26.8655 23.7853L25.8519 25.3462Z" fill="#FF00B7"/>
<path d="M25.7662 25.4493L34.6953 31.472L35.7361 29.929L26.8069 23.9062L25.7662 25.4493Z" fill="#FF00B3"/>
<path d="M25.6754 25.5508L34.498 31.7285L35.5656 30.2039L26.7429 24.0262L25.6754 25.5508Z" fill="#FF00AF"/>
<path d="M25.5853 25.6507L34.2988 31.9814L35.3928 30.4757L26.6793 24.1449L25.5853 25.6507Z" fill="#FF00AB"/>
<path d="M25.492 25.7492L34.0938 32.2311L35.2139 30.7446L26.6121 24.2628L25.492 25.7492Z" fill="#FF00A6"/>
<path d="M25.3975 25.8458L33.8848 32.4768L35.0306 31.0102L26.5434 24.3792L25.3975 25.8458Z" fill="#FF00A2"/>
<path d="M25.3036 25.941L33.6738 32.7191L34.8451 31.2727L26.4749 24.4946L25.3036 25.941Z" fill="#FF009E"/>
<path d="M25.2044 26.0342L33.4551 32.9574L34.6514 31.5316L26.4008 24.6085L25.2044 26.0342Z" fill="#FF009A"/>
<path d="M25.1058 26.126L33.2344 33.1921L34.4554 31.7875L26.3268 24.7214L25.1058 26.126Z" fill="#FF0095"/>
<path d="M25.0057 26.216L33.0098 33.4229L34.2552 32.0397L26.2511 24.8328L25.0057 26.216Z" fill="#FF0091"/>
<path d="M24.9042 26.3041L32.7812 33.6495L34.0506 32.2883L26.1735 24.9429L24.9042 26.3041Z" fill="#FF008D"/>
<path d="M24.8012 26.3905L32.5488 33.8723L33.8417 32.5335L26.0941 25.0516L24.8012 26.3905Z" fill="#FF0089"/>
<path d="M24.6946 26.475L32.3105 34.0909L33.6266 32.7749L26.0107 25.159L24.6946 26.475Z" fill="#FF0084"/>
<path d="M24.5885 26.5576L32.0703 34.3053L33.4092 33.0124L25.9273 25.2647L24.5885 26.5576Z" fill="#FF0080"/>
<path d="M24.4807 26.6385L31.8262 34.5155L33.1874 33.2462L25.8419 25.3691L24.4807 26.6385Z" fill="#FF007C"/>
<path d="M24.3693 26.7175L31.5762 34.7216L32.9593 33.4762L25.7524 25.4721L24.3693 26.7175Z" fill="#FF0078"/>
<path d="M24.2601 26.7945L31.3262 34.9231L32.7308 33.702L25.6648 25.5734L24.2601 26.7945Z" fill="#FF0073"/>
<path d="M24.1472 26.8696L31.0703 35.1202L32.4961 33.9239L25.5729 25.6732L24.1472 26.8696Z" fill="#FF006F"/>
<path d="M24.0344 26.9426L30.8125 35.3129L32.2589 34.1416L25.4808 25.7713L24.0344 26.9426Z" fill="#FF006B"/>
<path d="M23.9198 27.0137L30.5508 35.501L32.0174 34.3551L25.3864 25.8678L23.9198 27.0137Z" fill="#FF0067"/>
<path d="M23.8033 27.0829L30.2852 35.6846L31.7716 34.5645L25.2897 25.9628L23.8033 27.0829Z" fill="#FF0062"/>
<path d="M23.6849 27.1499L30.0156 35.8634L31.5214 34.7694L25.1906 26.0559L23.6849 27.1499Z" fill="#FF005E"/>
<path d="M23.5684 27.2148L29.7461 36.0375L31.2707 34.9699L25.093 26.1472L23.5684 27.2148Z" fill="#FF005A"/>
<path d="M23.4499 27.2778L29.4727 36.2069L31.0157 35.1661L24.9929 26.237L23.4499 27.2778Z" fill="#FF0056"/>
<path d="M23.3273 27.3386L29.1934 36.3715L30.7543 35.3578L24.8883 26.3249L23.3273 27.3386Z" fill="#FF0052"/>
<path d="M23.2066 27.3973L28.9141 36.5312L30.4925 35.545L24.785 26.411L23.2066 27.3973Z" fill="#FF004D"/>
<path d="M23.0836 27.4539L28.6309 36.686L30.2262 35.7274L24.679 26.4953L23.0836 27.4539Z" fill="#FF0049"/>
<path d="M22.9604 27.5083L28.3457 36.8358L29.9576 35.9052L24.5723 26.5777L22.9604 27.5083Z" fill="#FF0045"/>
<path d="M22.835 27.5606L28.0566 36.9807L29.6845 36.0784L24.4628 26.6583L22.835 27.5606Z" fill="#FF0041"/>
<path d="M22.7111 27.6107L27.7676 37.1205L29.4109 36.2467L24.3545 26.7369L22.7111 27.6107Z" fill="#FF003C"/>
<path d="M22.5849 27.6587L27.4746 37.2552L29.133 36.4103L24.2433 26.8137L22.5849 27.6587Z" fill="#FF0038"/>
<path d="M22.4582 27.7043L27.1797 37.3848L28.8525 36.5689L24.1311 26.8884L22.4582 27.7043Z" fill="#FF0034"/>
<path d="M22.331 27.7478L26.8828 37.5092L28.5696 36.7226L24.0178 26.9612L22.331 27.7478Z" fill="#FF0030"/>
<path d="M22.2013 27.7891L26.582 37.6284L28.2823 36.8714L23.9016 27.032L22.2013 27.7891Z" fill="#FF002B"/>
<path d="M22.0709 27.828L26.2793 37.7423L27.9926 37.0151L23.7842 27.1008L22.0709 27.828Z" fill="#FF0027"/>
<path d="M21.9419 27.8647L25.9766 37.851L27.7022 37.1537L23.6675 27.1675L21.9419 27.8647Z" fill="#FF0023"/>
<path d="M21.8121 27.8992L25.6719 37.9543L27.4095 37.2873L23.5497 27.2322L21.8121 27.8992Z" fill="#FF001F"/>
<path d="M21.6796 27.9314L25.3633 38.0524L27.1122 37.4158L23.4285 27.2948L21.6796 27.9314Z" fill="#FF001A"/>
<path d="M21.5501 27.9612L25.0566 38.1449L26.8165 37.5389L23.3099 27.3552L21.5501 27.9612Z" fill="#FF0016"/>
<path d="M21.4159 27.9888L24.7441 38.2322L26.5143 37.657L23.186 27.4137L21.4159 27.9888Z" fill="#FF0012"/>
<path d="M21.2846 28.0141L24.4336 38.314L26.2135 37.7698L23.0645 27.4699L21.2846 28.0141Z" fill="#FF000E"/>
<path d="M21.1504 28.037L24.1191 38.3903L25.9083 37.8772L22.9395 27.524L21.1504 28.037Z" fill="#FF0009"/>
<path d="M21.019 28.0575L23.8066 38.4611L25.6044 37.9793L22.8168 27.5758L21.019 28.0575Z" fill="#FF0005"/>
<path d="M20.8846 28.0759L23.4902 38.5265L25.2962 38.0762L22.6905 27.6256L20.8846 28.0759Z" fill="#FF0001"/>
<path d="M20.751 28.0918L23.1738 38.5863L24.9873 38.1676L22.5645 27.6732L20.751 28.0918Z" fill="#FF0300"/>
<path d="M20.6162 28.1055L22.8555 38.6406L24.676 38.2537L22.4367 27.7185L20.6162 28.1055Z" fill="#FF0700"/>
<path d="M20.482 28.1167L22.5371 38.6893L24.3641 38.3342L22.309 27.7616L20.482 28.1167Z" fill="#FF0C00"/>
<path d="M20.3465 28.1257L22.2168 38.7325L24.0497 38.4093L22.1795 27.8025L20.3465 28.1257Z" fill="#FF1000"/>
<path d="M20.2116 28.1322L21.8965 38.7701L23.7348 38.479L22.0499 27.8411L20.2116 28.1322Z" fill="#FF1400"/>
<path d="M20.0772 28.1364L21.5762 38.8021L23.4193 38.5431L21.9203 27.8774L20.0772 28.1364Z" fill="#FF1800"/>
<path d="M19.9413 28.1383L21.2539 38.8285L23.1012 38.6017L21.7886 27.9114L19.9413 28.1383Z" fill="#FF1D00"/>
<path d="M19.8078 28.1379L20.9336 38.8494L22.7846 38.6548L21.6588 27.9433L19.8078 28.1379Z" fill="#FF2100"/>
<path d="M19.6726 28.135L20.6113 38.8645L22.4655 38.7023L21.5267 27.9728L19.6726 28.135Z" fill="#FF2500"/>
<path d="M19.5377 28.1298L20.2891 38.874L22.1457 38.7442L21.3944 27.9999L19.5377 28.1298Z" fill="#FF2900"/>
<path d="M19.4031 28.1222L19.9668 38.8779L21.8255 38.7805L21.2618 28.0248L19.4031 28.1222Z" fill="#FF2E00"/>
<path d="M19.2686 28.1123L19.6445 38.8762L21.5046 38.8113L21.1287 28.0473L19.2686 28.1123Z" fill="#FF3200"/>
<path d="M19.1323 28.1L19.3203 38.8689L21.1812 38.8364L20.9933 28.0675L19.1323 28.1Z" fill="#FF3600"/>
<path d="M19 28.0854V38.856H20.8612V28.0854H19Z" fill="#FF3A00"/>
<path d="M18.8657 28.0685L18.6777 38.8374L20.5387 38.8699L20.7266 28.101L18.8657 28.0685Z" fill="#FF3F00"/>
<path d="M18.7333 28.0492L18.3574 38.8131L20.2175 38.8781L20.5934 28.1141L18.7333 28.0492Z" fill="#FF4300"/>
<path d="M18.5988 28.0277L18.0352 38.7834L19.8938 38.8809L20.4575 28.1251L18.5988 28.0277Z" fill="#FF4700"/>
<path d="M18.4662 28.0037L17.7148 38.7479L19.5715 38.8778L20.3228 28.1335L18.4662 28.0037Z" fill="#FF4B00"/>
<path d="M18.3332 27.9774L17.3945 38.7069L19.2487 38.8691L20.1874 28.1396L18.3332 27.9774Z" fill="#FF5000"/>
<path d="M18.202 27.949L17.0762 38.6605L18.9272 38.8551L20.053 28.1436L18.202 27.949Z" fill="#FF5400"/>
<path d="M18.0704 27.918L16.7578 38.6083L18.6052 38.8351L19.9177 28.1449L18.0704 27.918Z" fill="#FF5800"/>
<path d="M17.9404 27.885L16.4414 38.5507L18.2845 38.8097L19.7835 28.144L17.9404 27.885Z" fill="#FF5C00"/>
<path d="M17.8099 27.8495L16.125 38.4874L17.9633 38.7786L19.6482 28.1407L17.8099 27.8495Z" fill="#FF6000"/>
<path d="M17.6808 27.8119L15.8105 38.4188L17.6435 38.742L19.5138 28.1351L17.6808 27.8119Z" fill="#FF6500"/>
<path d="M17.5512 27.7719L15.4961 38.3445L17.3231 38.6996L19.3782 28.127L17.5512 27.7719Z" fill="#FF6900"/>
<path d="M17.4229 27.7297L15.1836 38.2649L17.0041 38.6519L19.2434 28.1167L17.4229 27.7297Z" fill="#FF6D00"/>
<path d="M17.2959 27.6853L14.873 38.1798L16.6866 38.5985L19.1094 28.104L17.2959 27.6853Z" fill="#FF7100"/>
<path d="M17.1681 27.6388L14.5625 38.0894L16.3684 38.5396L18.974 28.089L17.1681 27.6388Z" fill="#FF7600"/>
<path d="M17.0435 27.5899L14.2559 37.9934L16.0537 38.4751L18.8413 28.0716L17.0435 27.5899Z" fill="#FF7A00"/>
<path d="M16.918 27.5389L13.9492 37.8922L15.7383 38.4052L18.7071 28.052L16.918 27.5389Z" fill="#FF7E00"/>
<path d="M16.7935 27.4858L13.6445 37.7856L15.4244 38.3298L18.5734 28.0299L16.7935 27.4858Z" fill="#FF8200"/>
<path d="M16.6701 27.4303L13.3418 37.6737L15.1119 38.2489L18.4402 28.0055L16.6701 27.4303Z" fill="#FF8700"/>
<path d="M16.5476 27.3729L13.041 37.5566L14.8008 38.1626L18.3074 27.9789L16.5476 27.3729Z" fill="#FF8B00"/>
<path d="M16.4279 27.3132L12.7441 37.4342L14.4931 38.0708L18.1768 27.9498L16.4279 27.3132Z" fill="#FF8F00"/>
<path d="M16.309 27.2515L12.4492 37.3066L14.1868 37.9736L18.0466 27.9185L16.309 27.2515Z" fill="#FF9300"/>
<path d="M16.189 27.1877L12.1543 37.174L13.88 37.8712L17.9147 27.8849L16.189 27.1877Z" fill="#FF9800"/>
<path d="M16.0697 27.1219L11.8613 37.0363L13.5746 37.7635L17.783 27.8492L16.0697 27.1219Z" fill="#FF9C00"/>
<path d="M15.955 27.054L11.5742 36.8933L13.2745 37.6503L17.6553 27.811L15.955 27.054Z" fill="#FFA000"/>
<path d="M15.8389 26.9841L11.2871 36.7455L12.9739 37.5321L17.5258 27.7707L15.8389 26.9841Z" fill="#FFA400"/>
<path d="M15.7254 26.9121L11.0039 36.5925L12.6768 37.4084L17.3982 27.728L15.7254 26.9121Z" fill="#FFA900"/>
<path d="M15.6124 26.8382L10.7227 36.4348L12.381 37.2798L17.2707 27.6832L15.6124 26.8382Z" fill="#FFAD00"/>
<path d="M15.4998 26.7623L10.4434 36.2721L12.0867 37.1459L17.1432 27.6361L15.4998 26.7623Z" fill="#FFB100"/>
<path d="M15.3896 26.6845L10.168 36.1046L11.7958 37.0069L17.0175 27.5868L15.3896 26.6845Z" fill="#FFB500"/>
<path d="M15.2817 26.6047L9.89648 35.9323L11.5083 36.8629L16.8936 27.5353L15.2817 26.6047Z" fill="#FFB900"/>
<path d="M15.1722 26.5231L9.625 35.7552L11.2204 36.7138L16.7676 27.4817L15.1722 26.5231Z" fill="#FFBE00"/>
<path d="M15.0669 26.4397L9.35938 35.5736L10.9378 36.5599L16.6453 27.426L15.0669 26.4397Z" fill="#FFC200"/>
<path d="M14.9637 26.3544L9.09766 35.3873L10.6586 36.401L16.5246 27.3681L14.9637 26.3544Z" fill="#FFC600"/>
<path d="M14.8607 26.2673L8.83789 35.1964L10.3809 36.2372L16.4037 27.308L14.8607 26.2673Z" fill="#FFCA00"/>
<path d="M14.7578 26.1784L8.58008 35.0011L10.1047 36.0686L16.2824 27.246L14.7578 26.1784Z" fill="#FFCF00"/>
<path d="M14.6589 26.0876L8.32812 34.8011L9.83388 35.8951L16.1646 27.1816L14.6589 26.0876Z" fill="#FFD300"/>
<path d="M14.56 25.9952L8.07812 34.5969L9.56455 35.717L16.0464 27.1153L14.56 25.9952Z" fill="#FFD700"/>
<path d="M14.463 25.9012L7.83203 34.3884L9.29869 35.5343L15.9297 27.047L14.463 25.9012Z" fill="#FFDB00"/>
<path d="M14.3679 25.8054L7.58984 34.1757L9.03628 35.347L15.8144 26.9767L14.3679 25.8054Z" fill="#FFE000"/>
<path d="M14.2747 25.7079L7.35156 33.9586L8.77733 35.155L15.7005 26.9043L14.2747 25.7079Z" fill="#FFE400"/>
<path d="M14.1833 25.6088L7.11719 33.7374L8.52186 34.9585L15.588 26.8299L14.1833 25.6088Z" fill="#FFE800"/>
<path d="M14.0936 25.5083L6.88672 33.5123L8.26987 34.7577L15.4767 26.7537L14.0936 25.5083Z" fill="#FFEC00"/>
<path d="M14.0056 25.4062L6.66016 33.2832L8.02136 34.5525L15.3668 26.6755L14.0056 25.4062Z" fill="#FFF100"/>
<path d="M13.9193 25.3024L6.4375 33.05L7.77634 34.343L15.2582 26.5953L13.9193 25.3024Z" fill="#FFF500"/>
<path d="M13.8347 25.1972L6.21875 32.8131L7.53483 34.1292L15.1507 26.5133L13.8347 25.1972Z" fill="#FFF900"/>
<path d="M13.7516 25.0906L6.00391 32.5724L7.29681 33.9112L15.0445 26.4294L13.7516 25.0906Z" fill="#FFFD00"/>
<path d="M13.67 24.9824L5.79297 32.3279L7.06231 33.6891L14.9394 26.3436L13.67 24.9824Z" fill="#FCFF00"/>
<path d="M13.5919 24.873L5.58789 32.0798L6.83328 33.463L14.8373 26.2561L13.5919 24.873Z" fill="#F8FF00"/>
<path d="M13.5153 24.7622L5.38672 31.8282L6.60778 33.2329L14.7364 26.1668L13.5153 24.7622Z" fill="#F4FF00"/>
<path d="M13.4401 24.65L5.18945 31.5731L6.38582 32.9989L14.6365 26.0757L13.4401 24.65Z" fill="#F0FF00"/>
<path d="M13.3664 24.5366L4.99609 31.3147L6.16739 32.7611L14.5376 25.983L13.3664 24.5366Z" fill="#ECFF00"/>
<path d="M13.2939 24.4219L4.80664 31.0529L5.95252 32.5195L14.4398 25.8885L13.2939 24.4219Z" fill="#E7FF00"/>
<path d="M13.2267 24.306L4.625 30.7878L5.7451 32.2743L14.3468 25.7924L13.2267 24.306Z" fill="#E3FF00"/>
<path d="M13.1588 24.1888L4.44531 30.5195L5.53931 32.0253L14.2528 25.6945L13.1588 24.1888Z" fill="#DFFF00"/>
<path d="M13.0942 24.0705L4.27148 30.2482L5.33903 31.7728L14.1617 25.5951L13.0942 24.0705Z" fill="#DBFF00"/>
<path d="M13.0327 23.9512L4.10352 29.974L5.14429 31.517L14.0734 25.4942L13.0327 23.9512Z" fill="#D6FF00"/>
<path d="M12.9704 23.8306L3.9375 29.6967L4.95119 31.2576L13.9841 25.3916L12.9704 23.8306Z" fill="#D2FF00"/>
<path d="M12.9113 23.7091L3.77734 29.4166L4.76364 30.995L13.8975 25.2875L12.9113 23.7091Z" fill="#CEFF00"/>
<path d="M12.8552 23.5866L3.62305 29.1338L4.58164 30.7292L13.8138 25.1819L12.8552 23.5866Z" fill="#CAFF00"/>
<path d="M12.8002 23.4631L3.47266 28.8484L4.40326 30.4602L13.7308 25.075L12.8002 23.4631Z" fill="#C5FF00"/>
<path d="M12.7482 23.3387L3.32812 28.5603L4.23046 30.1882L13.6506 24.9665L12.7482 23.3387Z" fill="#C1FF00"/>
<path d="M12.6973 23.2134L3.1875 28.2699L4.06129 29.9132L13.5711 24.8568L12.6973 23.2134Z" fill="#BDFF00"/>
<path d="M12.6493 23.0872L3.05273 27.9769L3.89771 29.6353L13.4943 24.7456L12.6493 23.0872Z" fill="#B9FF00"/>
<path d="M12.6043 22.9602L2.92383 27.6816L3.73973 29.3545L13.4202 24.633L12.6043 22.9602Z" fill="#B4FF00"/>
<path d="M12.5622 22.8325L2.80078 27.3843L3.58736 29.0711L13.3488 24.5193L12.5622 22.8325Z" fill="#B0FF00"/>
<path d="M12.519 22.704L2.67969 27.0847L3.43671 28.785L13.2761 24.4043L12.519 22.704Z" fill="#ACFF00"/>
<path d="M12.4807 22.5747L2.56641 26.7831L3.29364 28.4963L13.2079 24.288L12.4807 22.5747Z" fill="#A8FF00"/>
<path d="M12.4433 22.4449L2.45703 26.4796L3.15425 28.2053L13.1405 24.1706L12.4433 22.4449Z" fill="#A3FF00"/>
<path d="M12.4106 22.3144L2.35547 26.1742L3.02247 27.9118L13.0776 24.052L12.4106 22.3144Z" fill="#9FFF00"/>
<path d="M12.3788 22.1833L2.25781 25.8671L2.89438 27.616L13.0154 23.9323L12.3788 22.1833Z" fill="#9BFF00"/>
<path d="M12.3478 22.0517L2.16406 25.5582L2.77001 27.318L12.9537 23.8115L12.3478 22.0517Z" fill="#97FF00"/>
<path d="M12.3195 21.9197L2.07617 25.2479L2.65132 27.018L12.8947 23.6898L12.3195 21.9197Z" fill="#93FF00"/>
<path d="M12.294 21.787L1.99414 24.936L2.53831 26.7159L12.8382 23.5669L12.294 21.787Z" fill="#8EFF00"/>
<path d="M12.2732 21.654L1.91992 24.6228L2.43294 26.4119L12.7862 23.4432L12.2732 21.654Z" fill="#8AFF00"/>
<path d="M12.2512 21.5206L1.84766 24.3082L2.32937 26.106L12.7329 23.3184L12.2512 21.5206Z" fill="#86FF00"/>
<path d="M12.2338 21.3869L1.7832 23.9926L2.23347 25.7985L12.684 23.1929L12.2338 21.3869Z" fill="#82FF00"/>
<path d="M12.2171 21.2529L1.72266 23.6758L2.14134 25.4893L12.6358 23.0665L12.2171 21.2529Z" fill="#7DFF00"/>
<path d="M12.2031 21.1186L1.66797 23.3579L2.05494 25.1784L12.5901 22.9391L12.2031 21.1186Z" fill="#79FF00"/>
<path d="M12.1918 20.9842L1.61914 23.0393L1.97428 24.8663L12.5469 22.8112L12.1918 20.9842Z" fill="#75FF00"/>
<path d="M12.1831 20.8496L1.57617 22.7198L1.89937 24.5528L12.5062 22.6825L12.1831 20.8496Z" fill="#71FF00"/>
<path d="M12.177 20.7147L1.53906 22.3995L1.83022 24.2378L12.4681 22.553L12.177 20.7147Z" fill="#6CFF00"/>
<path d="M12.1735 20.5799L1.50781 22.0789L1.76684 23.922L12.4325 22.423L12.1735 20.5799Z" fill="#68FF00"/>
<path d="M12.1707 20.445L1.48047 21.7576L1.70729 23.6049L12.3975 22.2923L12.1707 20.445Z" fill="#64FF00"/>
<path d="M12.1705 20.31L1.45898 21.4358L1.65353 23.2868L12.365 22.161L12.1705 20.31Z" fill="#60FF00"/>
<path d="M12.1729 20.1751L1.44336 21.1138L1.60557 22.9679L12.3351 22.0292L12.1729 20.1751Z" fill="#5BFF00"/>
<path d="M12.1798 20.0402L1.43555 20.7915L1.56538 22.6482L12.3097 21.8969L12.1798 20.0402Z" fill="#57FF00"/>
<path d="M12.1874 19.9054L1.43164 20.4691L1.52905 22.3278L12.2848 21.7641L12.1874 19.9054Z" fill="#53FF00"/>
<path d="M12.1975 19.7708L1.43359 20.1467L1.49855 22.0068L12.2625 21.6309L12.1975 19.7708Z" fill="#4FFF00"/>
<path d="M12.2083 19.6364L1.43945 19.8243L1.47194 21.6853L12.2408 21.4973L12.2083 19.6364Z" fill="#4AFF00"/>
<path d="M12.2236 19.5023H1.45312V21.3635H12.2236V19.5023Z" fill="#46FF00"/>
<path d="M12.2415 19.3684L1.47266 19.1804L1.44017 21.0413L12.209 21.2293L12.2415 19.3684Z" fill="#42FF00"/>
<path d="M12.26 19.2348L1.49609 18.8589L1.43114 20.719L12.1951 21.0949L12.26 19.2348Z" fill="#3EFF00"/>
<path d="M12.2811 19.1015L1.52539 18.5378L1.42798 20.3965L12.1837 20.9602L12.2811 19.1015Z" fill="#3AFF00"/>
<path d="M12.3048 18.9687L1.56055 18.2174L1.43072 20.0741L12.175 20.8254L12.3048 18.9687Z" fill="#35FF00"/>
<path d="M12.3311 18.8363L1.60156 17.8976L1.43935 19.7517L12.1689 20.6904L12.3311 18.8363Z" fill="#31FF00"/>
<path d="M12.3599 18.7044L1.64844 17.5786L1.45389 19.4296L12.1654 20.5555L12.3599 18.7044Z" fill="#2DFF00"/>
<path d="M12.3914 18.5731L1.70117 17.2605L1.47435 19.1078L12.1646 20.4204L12.3914 18.5731Z" fill="#29FF00"/>
<path d="M12.4235 18.4422L1.75781 16.9432L1.49878 18.7863L12.1645 20.2853L12.4235 18.4422Z" fill="#24FF00"/>
<path d="M12.4602 18.3121L1.82227 16.6272L1.53111 18.4655L12.169 20.1504L12.4602 18.3121Z" fill="#20FF00"/>
<path d="M12.4956 18.1824L1.88867 16.3121L1.56548 18.1451L12.1724 20.0153L12.4956 18.1824Z" fill="#1CFF00"/>
<path d="M12.5375 18.0535L1.96484 15.9984L1.60971 17.8254L12.1823 19.8805L12.5375 18.0535Z" fill="#18FF00"/>
<path d="M12.5801 17.9253L2.04492 15.686L1.65795 17.5066L12.1931 19.7459L12.5801 17.9253Z" fill="#13FF00"/>
<path d="M12.6234 17.798L2.12891 15.3751L1.71022 17.1886L12.2047 19.6115L12.6234 17.798Z" fill="#0FFF00"/>
<path d="M12.6693 17.6713L2.21875 15.0657L1.76848 16.8716L12.2191 19.4772L12.6693 17.6713Z" fill="#0BFF00"/>
<path d="M12.718 17.5454L2.31445 14.7578L1.83274 16.5556L12.2362 19.3432L12.718 17.5454Z" fill="#07FF00"/>
<path d="M12.7712 17.4204L2.41797 14.4517L1.90495 16.2408L12.2582 19.2095L12.7712 17.4204Z" fill="#02FF00"/>
<path d="M12.8233 17.2965L2.52344 14.1475L1.97927 15.9273L12.2792 19.0763L12.8233 17.2965Z" fill="#00FF02"/>
<path d="M12.8781 17.1732L2.63477 13.845L2.05962 15.6151L12.303 18.9434L12.8781 17.1732Z" fill="#00FF06"/>
<path d="M12.9357 17.0512L2.75195 13.5447L2.146 15.3045L12.3297 18.811L12.9357 17.0512Z" fill="#00FF0A"/>
<path d="M12.994 16.9302L2.87305 13.2465L2.23648 14.9954L12.3574 18.6792L12.994 16.9302Z" fill="#00FF0F"/>
<path d="M13.0571 16.8101L3.00195 12.9503L2.33495 14.6879L12.3901 18.5477L13.0571 16.8101Z" fill="#00FF13"/>
<path d="M13.121 16.6912L3.13477 12.6565L2.43754 14.3822L12.4238 18.4169L13.121 16.6912Z" fill="#00FF17"/>
<path d="M13.1877 16.5734L3.27344 12.365L2.5462 14.0782L12.4605 18.2866L13.1877 16.5734Z" fill="#00FF1B"/>
<path d="M13.2554 16.4568L3.41602 12.076L2.65899 13.7764L12.4983 18.1571L13.2554 16.4568Z" fill="#00FF1F"/>
<path d="M13.3258 16.3414L3.56445 11.7896L2.77787 13.4764L12.5393 18.0282L13.3258 16.3414Z" fill="#00FF24"/>
<path d="M13.3953 16.2271L3.71484 11.5056L2.89894 13.1785L12.5794 17.8999L13.3953 16.2271Z" fill="#00FF28"/>
<path d="M13.4716 16.1143L3.875 11.2246L3.03003 12.883L12.6266 17.7727L13.4716 16.1143Z" fill="#00FF2C"/>
<path d="M13.5469 16.0026L4.03711 10.9462L3.16332 12.5895L12.6731 17.646L13.5469 16.0026Z" fill="#00FF30"/>
<path d="M13.6252 15.8924L4.20508 10.6708L3.30274 12.2986L12.7228 17.5203L13.6252 15.8924Z" fill="#00FF35"/>
<path d="M13.7045 15.7834L4.37695 10.3982L3.44635 12.01L12.7739 17.3953L13.7045 15.7834Z" fill="#00FF39"/>
<path d="M13.7868 15.676L4.55469 10.1288L3.59609 11.7242L12.8282 17.2714L13.7868 15.676Z" fill="#00FF3D"/>
<path d="M13.8702 15.5699L4.73633 9.86243L3.75004 11.4408L12.8839 17.1483L13.8702 15.5699Z" fill="#00FF41"/>
<path d="M13.9548 15.4654L4.92188 9.59937L3.90819 11.1603L12.9411 17.0263L13.9548 15.4654Z" fill="#00FF46"/>
<path d="M14.0405 15.3624L5.11133 9.3396L4.07055 10.8826L12.9997 16.9054L14.0405 15.3624Z" fill="#00FF4A"/>
<path d="M14.1313 15.2607L5.30859 9.08301L4.24105 10.6076L13.0637 16.7853L14.1313 15.2607Z" fill="#00FF4E"/>
<path d="M14.2213 15.1608L5.50781 8.83008L4.41382 10.3358L13.1273 16.6666L14.2213 15.1608Z" fill="#00FF52"/>
<path d="M14.3126 15.0624L5.71094 8.58057L4.59083 10.067L13.1925 16.5489L14.3126 15.0624Z" fill="#00FF57"/>
<path d="M14.4092 14.9657L5.92188 8.33472L4.776 9.80137L13.2633 16.4324L14.4092 14.9657Z" fill="#00FF5B"/>
<path d="M14.5031 14.8706L6.13281 8.09253L4.96151 9.53896L13.3318 16.3171L14.5031 14.8706Z" fill="#00FF5F"/>
<path d="M14.6003 14.7773L6.34961 7.85413L5.15325 9.2799L13.4039 16.203L14.6003 14.7773Z" fill="#00FF63"/>
<path d="M14.7009 14.6856L6.57227 7.61951L5.3512 9.02418L13.4798 16.0903L14.7009 14.6856Z" fill="#00FF68"/>
<path d="M14.8009 14.5957L6.79688 7.38879L5.55148 8.77194L13.5555 15.9788L14.8009 14.5957Z" fill="#00FF6C"/>
<path d="M14.9024 14.5075L7.02539 7.16199L5.75605 8.52319L13.6331 15.8687L14.9024 14.5075Z" fill="#00FF70"/>
<path d="M15.0074 14.4212L7.25977 6.93933L5.96686 8.27817L13.7145 15.76L15.0074 14.4212Z" fill="#00FF74"/>
<path d="M15.112 14.3366L7.49609 6.7207L6.18002 8.03678L13.7959 15.6527L15.112 14.3366Z" fill="#00FF78"/>
<path d="M15.2182 14.2539L7.73633 6.50623L6.39748 7.79913L13.8793 15.5468L15.2182 14.2539Z" fill="#00FF7D"/>
<path d="M15.3259 14.1731L7.98047 6.29602L6.61926 7.56536L13.9647 15.4424L15.3259 14.1731Z" fill="#00FF81"/>
<path d="M15.4354 14.0941L8.22852 6.09009L6.84537 7.33548L14.0522 15.3395L15.4354 14.0941Z" fill="#00FF85"/>
<path d="M15.5466 14.0172L8.48047 5.88855L7.07579 7.10961L14.1419 15.2382L15.5466 14.0172Z" fill="#00FF89"/>
<path d="M15.6595 13.9421L8.73633 5.69141L7.31056 6.88777L14.2337 15.1385L15.6595 13.9421Z" fill="#00FF8E"/>
<path d="M15.7722 13.869L8.99414 5.49878L7.54771 6.67008L14.3258 15.0403L15.7722 13.869Z" fill="#00FF92"/>
<path d="M15.8868 13.7978L9.25586 5.31055L7.7892 6.45642L14.4202 14.9437L15.8868 13.7978Z" fill="#00FF96"/>
<path d="M16.0033 13.7288L9.52148 5.12708L8.03505 6.24718L14.5169 14.8489L16.0033 13.7288Z" fill="#00FF9A"/>
<path d="M16.1198 13.6618L9.78906 4.94824L8.28331 6.04223L14.6141 14.7558L16.1198 13.6618Z" fill="#00FF9F"/>
<path d="M16.2383 13.5967L10.0605 4.77405L8.53593 5.84159L14.7136 14.6643L16.2383 13.5967Z" fill="#00FFA3"/>
<path d="M16.3587 13.5338L10.3359 4.60461L8.79292 5.64539L14.8157 14.5745L16.3587 13.5338Z" fill="#00FFA7"/>
<path d="M16.4774 13.473L10.6113 4.44006L9.05039 5.45375L14.9164 14.4867L16.4774 13.473Z" fill="#00FFAB"/>
<path d="M16.6001 13.4143L10.8926 4.2804L9.31418 5.26669L15.0217 14.4006L16.6001 13.4143Z" fill="#00FFB0"/>
<path d="M16.723 13.3576L11.1758 4.12549L9.58041 5.08408L15.1276 14.3162L16.723 13.3576Z" fill="#00FFB4"/>
<path d="M16.8462 13.3032L11.4609 3.97571L9.84908 4.90631L15.2343 14.2338L16.8462 13.3032Z" fill="#00FFB8"/>
<path d="M16.9716 13.251L11.75 3.83093L10.1221 4.73327L15.3438 14.1534L16.9716 13.251Z" fill="#00FFBC"/>
<path d="M17.0955 13.2008L12.0391 3.69104L10.3957 4.56483L15.4522 14.0746L17.0955 13.2008Z" fill="#00FFC1"/>
<path d="M17.2217 13.153L12.332 3.5564L10.6737 4.40137L15.5634 13.998L17.2217 13.153Z" fill="#00FFC5"/>
<path d="M17.3484 13.1072L12.627 3.42676L10.9541 4.24266L15.6756 13.9231L17.3484 13.1072Z" fill="#00FFC9"/>
<path d="M17.4756 13.0638L12.9238 3.30237L11.237 4.08895L15.7888 13.8503L17.4756 13.0638Z" fill="#00FFCD"/>
<path d="M17.6054 13.0226L13.2246 3.18323L11.5243 3.94025L15.9051 13.7796L17.6054 13.0226Z" fill="#00FFD1"/>
<path d="M17.7357 12.9836L13.5273 3.06934L11.8141 3.79657L16.0225 13.7109L17.7357 12.9836Z" fill="#00FFD6"/>
<path d="M17.8648 12.9468L13.8301 2.96057L12.1044 3.65779L16.1391 13.644L17.8648 12.9468Z" fill="#00FFDA"/>
<path d="M17.9946 12.9124L14.1348 2.8573L12.3972 3.5243L16.257 13.5794L17.9946 12.9124Z" fill="#00FFDE"/>
<path d="M18.1251 12.8802L14.4414 2.75928L12.6924 3.39585L16.3762 13.5168L18.1251 12.8802Z" fill="#00FFE2"/>
<path d="M18.2565 12.8505L14.75 2.66675L12.9902 3.2727L16.4967 13.4564L18.2565 12.8505Z" fill="#00FFE7"/>
<path d="M18.3888 12.8228L15.0605 2.57947L13.2904 3.15461L16.6187 13.398L18.3888 12.8228Z" fill="#00FFEB"/>
<path d="M18.522 12.7976L15.373 2.49768L13.5932 3.04185L16.7422 13.3417L18.522 12.7976Z" fill="#00FFEF"/>
<path d="M18.6563 12.7747L15.6875 2.42139L13.8984 2.93441L16.8671 13.2877L18.6563 12.7747Z" fill="#00FFF3"/>
<path d="M18.7876 12.754L16 2.35046L14.2022 2.83218L16.9898 13.2357L18.7876 12.754Z" fill="#00FFF8"/>
<path d="M18.922 12.7357L16.3164 2.28516L14.5105 2.73542L17.1161 13.186L18.922 12.7357Z" fill="#00FFFC"/>
<path d="M19.0556 12.7197L16.6328 2.22522L14.8193 2.6439L17.2421 13.1384L19.0556 12.7197Z" fill="#00FEFF"/>
<path d="M19.1905 12.7062L16.9512 2.17102L15.1306 2.55799L17.3699 13.0931L19.1905 12.7062Z" fill="#00FAFF"/>
<path d="M19.3246 12.6948L17.2695 2.12219L15.4425 2.47733L17.4976 13.05L19.3246 12.6948Z" fill="#00F5FF"/>
<path d="M19.4601 12.686L17.5898 2.0791L15.7569 2.4023L17.6272 13.0092L19.4601 12.686Z" fill="#00F1FF"/>
<path d="M19.595 12.6794L17.9102 2.0415L16.0719 2.33266L17.7567 12.9706L19.595 12.6794Z" fill="#00EDFF"/>
<path d="M19.7294 12.6752L18.2305 2.00952L16.3874 2.26855L17.8863 12.9342L19.7294 12.6752Z" fill="#00E9FF"/>
<path d="M19.8634 12.6733L18.5508 1.98303L16.7034 2.20986L18.016 12.9001L19.8634 12.6733Z" fill="#00E4FF"/>
<path d="M19.9989 12.6738L18.873 1.96228L17.022 2.15683L18.1479 12.8683L19.9989 12.6738Z" fill="#00E0FF"/>
<path d="M20.134 12.6767L19.1953 1.94714L17.3412 2.10936L18.2799 12.8389L20.134 12.6767Z" fill="#00DCFF"/>
<path d="M20.2689 12.6819L19.5176 1.93762L17.6609 2.06745L18.4122 12.8117L20.2689 12.6819Z" fill="#00D8FF"/>
<path d="M20.4035 12.6893L19.8398 1.93359L17.9812 2.031L18.5449 12.7868L20.4035 12.6893Z" fill="#00D4FF"/>
<path d="M20.538 12.6994L20.1621 1.93542L18.302 2.00038L18.6779 12.7643L20.538 12.6994Z" fill="#00CFFF"/>
<path d="M20.6723 12.7116L20.4844 1.94275L18.6234 1.97523L18.8114 12.7441L20.6723 12.7116Z" fill="#00CBFF"/>
<path d="M20.8066 12.7262V1.95569H18.9454V12.7262H20.8066Z" fill="#00C7FF"/>
<path d="M20.939 12.7431L21.127 1.97424L19.266 1.94176L19.0781 12.7106L20.939 12.7431Z" fill="#00C3FF"/>
<path d="M21.0733 12.7624L21.4492 1.99841L19.5891 1.93346L19.2133 12.6974L21.0733 12.7624Z" fill="#00BEFF"/>
<path d="M21.2078 12.7839L21.7715 2.0282L19.9128 1.93079L19.3491 12.6865L21.2078 12.7839Z" fill="#00BAFF"/>
<path d="M21.3405 12.8079L22.0918 2.0636L20.2351 1.93377L19.4838 12.678L21.3405 12.8079Z" fill="#00B6FF"/>
<path d="M21.4734 12.8341L22.4121 2.10461L20.558 1.9424L19.6193 12.6719L21.4734 12.8341Z" fill="#00B2FF"/>
<path d="M21.6046 12.8628L22.7305 2.15125L20.8795 1.9567L19.7536 12.6682L21.6046 12.8628Z" fill="#00ADFF"/>
<path d="M21.7362 12.8936L23.0488 2.20337L21.2015 1.97654L19.8889 12.6668L21.7362 12.8936Z" fill="#00A9FF"/>
<path d="M21.8663 12.9267L23.3652 2.26099L21.5221 2.00196L20.0232 12.6676L21.8663 12.9267Z" fill="#00A5FF"/>
<path d="M21.9968 12.9621L23.6816 2.32422L21.8433 2.03306L20.1585 12.671L21.9968 12.9621Z" fill="#00A1FF"/>
<path d="M22.1258 12.9997L23.9961 2.39282L22.1632 2.06963L20.2929 12.6765L22.1258 12.9997Z" fill="#009CFF"/>
<path d="M22.2554 13.0397L24.3105 2.46704L22.4835 2.11191L20.4284 12.6845L22.2554 13.0397Z" fill="#0098FF"/>
<path d="M22.3837 13.0819L24.623 2.54675L22.8025 2.15979L20.5632 12.6949L22.3837 13.0819Z" fill="#0094FF"/>
<path d="M22.5108 13.1263L24.9336 2.63184L23.1201 2.21315L20.6972 12.7076L22.5108 13.1263Z" fill="#0090FF"/>
<path d="M22.6385 13.1729L25.2441 2.72229L23.4382 2.27202L20.8326 12.7226L22.6385 13.1729Z" fill="#008BFF"/>
<path d="M22.7651 13.2216L25.5527 2.81812L23.7549 2.3364L20.9673 12.7399L22.7651 13.2216Z" fill="#0087FF"/>
<path d="M22.8887 13.2727L25.8574 2.91943L24.0683 2.40641L21.0996 12.7597L22.8887 13.2727Z" fill="#0083FF"/>
<path d="M23.0131 13.3259L26.1621 3.026L24.3822 2.48184L21.2332 12.7817L23.0131 13.3259Z" fill="#007FFF"/>
<path d="M23.1346 13.3813L26.4629 3.13794L24.6928 2.56279L21.3645 12.8062L23.1346 13.3813Z" fill="#007BFF"/>
<path d="M23.2571 13.4387L26.7637 3.255L25.0039 2.64905L21.4973 12.8328L23.2571 13.4387Z" fill="#0076FF"/>
<path d="M23.3788 13.4984L27.0625 3.37744L25.3135 2.74087L21.6298 12.8618L23.3788 13.4984Z" fill="#0072FF"/>
<path d="M23.4996 13.56L27.3594 3.50488L25.6218 2.83788L21.762 12.893L23.4996 13.56Z" fill="#006EFF"/>
<path d="M23.6176 13.6238L27.6523 3.63757L25.9267 2.94035L21.892 12.9266L23.6176 13.6238Z" fill="#006AFF"/>
<path d="M23.735 13.6897L27.9434 3.77539L26.2301 3.04816L22.0217 12.9625L23.735 13.6897Z" fill="#0065FF"/>
<path d="M23.8517 13.7577L28.2324 3.91833L26.5321 3.16131L22.1514 13.0007L23.8517 13.7577Z" fill="#0061FF"/>
<path d="M23.9677 13.8276L28.5195 4.06616L26.8327 3.27958L22.2809 13.041L23.9677 13.8276Z" fill="#005DFF"/>
<path d="M24.0813 13.8995L28.8027 4.21899L27.1299 3.40309L22.4084 13.0836L24.0813 13.8995Z" fill="#0059FF"/>
<path d="M24.1943 13.9734L29.084 4.37683L27.4256 3.53186L22.5359 13.1285L24.1943 13.9734Z" fill="#0054FF"/>
<path d="M24.3068 14.0493L29.3633 4.53955L27.7199 3.66576L22.6635 13.1756L24.3068 14.0493Z" fill="#0050FF"/>
<path d="M24.417 14.1271L29.6387 4.70703L28.0108 3.8047L22.7892 13.2248L24.417 14.1271Z" fill="#004CFF"/>
<path d="M24.5249 14.2068L29.9102 4.87927L28.2983 3.94867L22.913 13.2762L24.5249 14.2068Z" fill="#0048FF"/>
<path d="M24.6325 14.2884L30.1797 5.05627L28.5843 4.09768L23.0371 13.3298L24.6325 14.2884Z" fill="#0043FF"/>
<path d="M24.7398 14.3719L30.4473 5.23804L28.8689 4.25175L23.1614 13.3857L24.7398 14.3719Z" fill="#003FFF"/>
<path d="M24.8429 14.4572L30.709 5.42432L29.148 4.41063L23.282 13.4435L24.8429 14.4572Z" fill="#003BFF"/>
<path d="M24.946 14.5444L30.9688 5.61523L29.4257 4.57446L23.4029 13.5036L24.946 14.5444Z" fill="#0037FF"/>
<path d="M25.0489 14.6334L31.2266 5.81067L29.7019 4.74312L23.5242 13.5658L25.0489 14.6334Z" fill="#0032FF"/>
<path d="M25.1497 14.724L31.4805 6.0105L29.9747 4.91651L23.644 13.63L25.1497 14.724Z" fill="#002EFF"/>
<path d="M25.2467 14.8163L31.7285 6.2146L30.2421 5.09449L23.7602 13.6962L25.2467 14.8163Z" fill="#002AFF"/>
<path d="M25.3436 14.9105L31.9746 6.42322L30.508 5.27734L23.877 13.7646L25.3436 14.9105Z" fill="#0026FF"/>
<path d="M25.4387 15.0062L32.2168 6.63599L30.7704 5.46469L23.9923 13.8349L25.4387 15.0062Z" fill="#0022FF"/>
<path d="M20.448 38.2382H19.3907C19.3417 38.2203 19.2924 38.2159 19.2429 38.2159C18.6785 38.1891 18.1181 38.1437 17.5626 38.0681C16.5235 37.9337 15.5018 37.7052 14.5073 37.3875C12.8005 36.8413 11.2101 36.0575 9.73617 35.036C8.36941 34.0863 7.16029 32.9667 6.10729 31.677C4.86589 30.1631 3.89857 28.4923 3.21283 26.6563C2.59886 25.026 2.23161 23.3378 2.11935 21.5953C2.11935 21.5013 2.10152 21.4072 2.07031 21.3131V19.4723C2.10152 19.3912 2.11489 19.3065 2.11935 19.2215C2.14164 18.8048 2.18622 18.3882 2.24061 17.9764C2.50961 15.988 3.10058 14.1019 4.0102 12.3148C4.63737 11.0829 5.39908 9.93682 6.29471 8.87918C7.18186 7.83135 8.17646 6.89489 9.27823 6.07549C11.0748 4.74056 13.0507 3.7777 15.2098 3.18683C16.258 2.90053 17.3291 2.7124 18.4129 2.62253C18.6053 2.60469 18.8073 2.62253 18.9997 2.57349H20.8096C20.9483 2.61361 21.0919 2.59132 21.2305 2.60469C21.9478 2.66711 22.66 2.75725 23.3674 2.8959C25.5941 3.33484 27.6591 4.16814 29.568 5.3992C31.0511 6.35314 32.3592 7.50413 33.5014 8.84325C34.4201 9.91827 35.1992 11.0874 35.8355 12.3499C36.5881 13.8417 37.1255 15.4044 37.4308 17.048C37.5918 17.9168 37.7131 18.7947 37.7172 19.6816C37.7172 19.7404 37.7305 19.8028 37.735 19.8606V20.9177C37.7172 20.9846 37.7172 21.0564 37.7127 21.128C37.7127 21.2981 37.7127 21.4688 37.6993 21.6388C37.6182 22.7229 37.4484 23.7931 37.1794 24.85C36.6643 26.8343 35.8351 28.6751 34.6837 30.3723C33.8278 31.6355 32.8291 32.7733 31.682 33.7807C30.5397 34.7841 29.2894 35.6306 27.9318 36.3155C26.368 37.1035 24.7239 37.6504 22.999 37.95C22.3361 38.0664 21.6685 38.1423 20.9967 38.1827C20.8197 38.2032 20.6319 38.1989 20.448 38.2382Z" fill="#383838"/>
<path style="mix-blend-mode:lighten" d="M15.2653 13.0067C15.2529 13.3344 15.3111 13.6926 15.4076 14.0509C15.5915 14.7325 15.8963 15.3571 16.2558 15.9471C17.0746 17.2888 18.1066 18.4375 19.2264 19.504C19.3181 19.5917 19.4273 19.6657 19.5442 19.7221C19.6613 19.783 19.7782 19.783 19.8991 19.7308C20.016 19.6786 20.1206 19.6043 20.2084 19.5079C20.5971 19.1061 20.9812 18.7037 21.349 18.2885C21.867 17.6985 22.3603 17.0915 22.8074 16.4404C23.2129 15.8505 23.5762 15.2299 23.8433 14.557C24.1105 13.8882 24.2403 13.1983 24.1526 12.473C24.0064 11.2761 23.5177 10.262 22.6443 9.46679C21.6116 8.52809 20.4086 8.15224 19.0549 8.3616C16.8531 8.70283 15.2569 10.7304 15.2653 13.0067Z" fill="url(#paint0_radial_547_1712)"/>
<path d="M26.661 29.3208C26.3838 29.3292 26.0726 29.295 25.7616 29.2289C24.8412 29.0274 24.0594 28.6089 23.4587 27.867C23.0933 27.4146 22.7861 26.9243 22.5214 26.4086C22.2101 25.801 21.9501 25.168 21.7233 24.5272C21.4461 23.752 21.2108 22.96 21.0297 22.1594C20.9291 21.7109 21.0421 21.4299 21.5382 21.2754C22.1683 21.0785 22.8031 20.9025 23.4502 20.7597C24.5216 20.525 25.6014 20.3744 26.7029 20.4115C27.014 20.424 27.3245 20.4574 27.6317 20.5119C28.5226 20.6671 29.2789 21.0778 29.8965 21.7271C30.9515 22.8335 31.3712 24.1536 31.111 25.6583C30.7371 27.8084 28.8291 29.3378 26.661 29.3208Z" fill="url(#paint1_radial_547_1712)"/>
<path d="M12.7829 29.3208C13.06 29.3292 13.3712 29.295 13.6823 29.2289C14.6027 29.0274 15.3844 28.6089 15.9852 27.867C16.3505 27.4146 16.6577 26.9243 16.9224 26.4086C17.2337 25.801 17.4938 25.168 17.7206 24.5272C17.9977 23.752 18.233 22.96 18.4142 22.1594C18.5148 21.7109 18.4017 21.4299 17.9056 21.2754C17.2755 21.0785 16.6407 20.9025 15.9936 20.7597C14.9223 20.525 13.8424 20.3744 12.741 20.4115C12.4298 20.424 12.1193 20.4574 11.8121 20.5119C10.9212 20.6671 10.165 21.0778 9.5473 21.7271C8.49227 22.8335 8.07264 24.1536 8.3328 25.6583C8.70669 27.8084 10.6147 29.3378 12.7829 29.3208Z" fill="url(#paint2_radial_547_1712)"/>
</g>
<defs>
<radialGradient id="paint0_radial_547_1712" cx="0" cy="0" r="1" gradientUnits="userSpaceOnUse" gradientTransform="translate(19.808 19.1747) rotate(4.82254) scale(4.73551 8.75361)">
<stop stop-color="white"/>
<stop offset="1" stop-color="#009BD8"/>
</radialGradient>
<radialGradient id="paint1_radial_547_1712" cx="0" cy="0" r="1" gradientUnits="userSpaceOnUse" gradientTransform="translate(21.0456 21.8854) rotate(21.7759) scale(10.4428 5.58037)">
<stop stop-color="white"/>
<stop offset="1" stop-color="#FF3044"/>
</radialGradient>
<radialGradient id="paint2_radial_547_1712" cx="0" cy="0" r="1" gradientUnits="userSpaceOnUse" gradientTransform="translate(18.3428 21.507) rotate(146.321) scale(10.5532 4.79696)">
<stop stop-color="white"/>
<stop offset="1" stop-color="#FCFF7C"/>
</radialGradient>
<clipPath id="clip0_547_1712">
<rect width="40.0936" height="40.0936" fill="white"/>
</clipPath>
</defs>
</svg>
